:FULLY-SPECIFIED
:FORCE-ALL-JOINTS-BE-3DOF
:DEGREES
2956
root -5.89556 13.2637 -28.9236 1232.72 -66.7893 -149.417
lfemur -67.3703 41.4021 -7.03032
ltibia 75.244 0 0
lfoot -7.65066 -1.98688 0
ltoes -38.2145 0 0
rfemur -34.1169 -16.8552 23.3716
rtibia 89.5175 0 0
rfoot -39.8465 -30.044 0
rtoes -13.5942 0 0
lowerback 16.2114 5.20932 1.35657
upperback -4.30097 7.48602 1.41303
thorax -13.9678 3.41223 -1.271
lowerneck -2.68969 8.79794 1.18324
upperneck 7.67953 11.5167 1.89779
head 2.95328 5.79601 0.850382
lclavicle 1.07066e-14 8.11626e-15 0
lhumerus 6.39776 13.4974 82.7895
lradius 90.2323 0 0
lwrist -17.2009 0 0
lhand -38.1658 388.898 0
lfingers 7.12502 0 0
lthumb -11.1983 -661.445 0
rclavicle 1.07066e-14 8.11626e-15 0
rhumerus -53.4786 48.4848 -108.438
rradius 112.282 0 0
rwrist -80.6636 0 0
rhand 5.79998 -385.77 0
rfingers 7.12502 0 0
rthumb 31.1208 306.976 0
2957
root -5.84181 13.3119 -28.9902 1229.33 -66.8604 -145.9
lfemur -67.2062 40.4925 -7.21575
ltibia 74.1776 0 0
lfoot -7.58102 -1.595 0
ltoes -37.9511 0 0
rfemur -34.1245 -16.4297 23.6519
rtibia 89.0309 0 0
rfoot -39.5204 -29.9998 0
rtoes -13.5162 0 0
lowerback 16.1971 5.16839 1.34476
upperback -4.23929 7.42331 1.39041
thorax -13.8876 3.385 -1.26836
lowerneck -2.60051 8.51643 0.982115
upperneck 7.42188 11.1469 1.98234
head 2.85896 5.61019 0.900838
lclavicle 1.04458e-14 7.24354e-15 0
lhumerus 6.65114 13.0902 82.7446
lradius 90.0175 0 0
lwrist -16.7403 0 0
lhand -37.8694 388.98 0
lfingers 7.12502 0 0
lthumb -10.9123 -661.354 0
rclavicle 1.04458e-14 7.24354e-15 0
rhumerus -51.6626 47.5847 -107.394
rradius 112.065 0 0
rwrist -80.1207 0 0
rhand 5.24931 -385.913 0
rfingers 7.12502 0 0
rthumb 30.5924 306.769 0
2958
root -5.78805 13.36 -29.0568 1225.94 -66.9314 -142.383
lfemur -67.0421 39.583 -7.40118
ltibia 73.1112 0 0
lfoot -7.51139 -1.20312 0
ltoes -37.6877 0 0
rfemur -34.1321 -16.0042 23.9323
rtibia 88.5444 0 0
rfoot -39.1944 -29.9556 0
rtoes -13.4381 0 0
lowerback 16.1828 5.12745 1.33296
upperback -4.17761 7.3606 1.36779
thorax -13.8074 3.35778 -1.26572
lowerneck -2.51133 8.23491 0.780988
upperneck 7.16423 10.7772 2.06689
head 2.76464 5.42438 0.951294
lclavicle 1.0185e-14 6.37083e-15 0
lhumerus 6.90452 12.683 82.6998
lradius 89.8028 0 0
lwrist -16.2797 0 0
lhand -37.5731 389.063 0
lfingers 7.12502 0 0
lthumb -10.6262 -661.263 0
rclavicle 1.0185e-14 6.37083e-15 0
rhumerus -49.8466 46.6847 -106.349
rradius 111.848 0 0
rwrist -79.5777 0 0
rhand 4.69863 -386.056 0
rfingers 7.12502 0 0
rthumb 30.0641 306.562 0
2959
root -5.7343 13.4082 -29.1234 1222.55 -67.0025 -138.866
lfemur -66.878 38.6734 -7.58662
ltibia 72.0448 0 0
lfoot -7.44175 -0.811234 0
ltoes -37.4244 0 0
rfemur -34.1398 -15.5787 24.2126
rtibia 88.0579 0 0
rfoot -38.8683 -29.9114 0
rtoes -13.3601 0 0
lowerback 16.1685 5.08652 1.32116
upperback -4.11593 7.29789 1.34517
thorax -13.7272 3.33055 -1.26309
lowerneck -2.42216 7.95339 0.579862
upperneck 6.90658 10.4075 2.15144
head 2.67031 5.23856 1.00175
lclavicle 9.92413e-15 5.49811e-15 0
lhumerus 7.15789 12.2758 82.6549
lradius 89.588 0 0
lwrist -15.8191 0 0
lhand -37.2767 389.145 0
lfingers 7.12502 0 0
lthumb -10.3401 -661.172 0
rclavicle 9.92413e-15 5.49811e-15 0
rhumerus -48.0306 45.7847 -105.305
rradius 111.631 0 0
rwrist -79.0348 0 0
rhand 4.14795 -386.199 0
rfingers 7.12502 0 0
rthumb 29.5357 306.354 0
2960
root -5.68054 13.4564 -29.19 1219.16 -67.0735 -135.348
lfemur -66.7139 37.7639 -7.77205
ltibia 70.9785 0 0
lfoot -7.37211 -0.419353 0
ltoes -37.161 0 0
rfemur -34.1474 -15.1532 24.493
rtibia 87.5713 0 0
rfoot -38.5423 -29.8673 0
rtoes -13.282 0 0
lowerback 16.1542 5.04558 1.30935
upperback -4.05425 7.23517 1.32255
thorax -13.647 3.30333 -1.26045
lowerneck -2.33298 7.67188 0.378736
upperneck 6.64893 10.0377 2.236
head 2.57599 5.05275 1.05221
lclavicle 9.6633e-15 4.6254e-15 0
lhumerus 7.41127 11.8687 82.6101
lradius 89.3733 0 0
lwrist -15.3585 0 0
lhand -36.9804 389.228 0
lfingers 7.12502 0 0
lthumb -10.0541 -661.081 0
rclavicle 9.6633e-15 4.6254e-15 0
rhumerus -46.2146 44.8846 -104.261
rradius 111.415 0 0
rwrist -78.4918 0 0
rhand 3.59728 -386.343 0
rfingers 7.12502 0 0
rthumb 29.0074 306.147 0
2961
root -5.62679 13.5045 -29.2565 1215.77 -67.1446 -131.831
lfemur -66.5498 36.8543 -7.95748
ltibia 69.9121 0 0
lfoot -7.30248 -0.0274722 0
ltoes -36.8976 0 0
rfemur -34.155 -14.7276 24.7733
rtibia 87.0848 0 0
rfoot -38.2162 -29.8231 0
rtoes -13.204 0 0
lowerback 16.1398 5.00465 1.29755
upperback -3.99257 7.17246 1.29992
thorax -13.5668 3.2761 -1.25781
lowerneck -2.2438 7.39036 0.177609
upperneck 6.39128 9.66798 2.32055
head 2.48167 4.86693 1.10266
lclavicle 9.40247e-15 3.75268e-15 0
lhumerus 7.66465 11.4615 82.5652
lradius 89.1585 0 0
lwrist -14.8979 0 0
lhand -36.684 389.31 0
lfingers 7.12502 0 0
lthumb -9.76802 -660.99 0
rclavicle 9.40247e-15 3.75268e-15 0
rhumerus -44.3986 43.9846 -103.216
rradius 111.198 0 0
rwrist -77.9489 0 0
rhand 3.0466 -386.486 0
rfingers 7.12502 0 0
rthumb 28.479 305.94 0
2962
root -5.57304 13.5527 -29.3231 1212.39 -67.2157 -128.314
lfemur -66.3856 35.9448 -8.14291
ltibia 68.8457 0 0
lfoot -7.23284 0.364409 0
ltoes -36.6342 0 0
rfemur -34.1626 -14.3021 25.0537
rtibia 86.5982 0 0
rfoot -37.8901 -29.7789 0
rtoes -13.1259 0 0
lowerback 16.1255 4.96371 1.28575
upperback -3.9309 7.10975 1.2773
thorax -13.4867 3.24888 -1.25517
lowerneck -2.15462 7.10885 -0.0235171
upperneck 6.13363 9.29824 2.4051
head 2.38735 4.68111 1.15312
lclavicle 9.14165e-15 2.87997e-15 0
lhumerus 7.91803 11.0543 82.5203
lradius 88.9438 0 0
lwrist -14.4372 0 0
lhand -36.3877 389.393 0
lfingers 7.12502 0 0
lthumb -9.48196 -660.899 0
rclavicle 9.14165e-15 2.87997e-15 0
rhumerus -42.5827 43.0845 -102.172
rradius 110.981 0 0
rwrist -77.4059 0 0
rhand 2.49593 -386.629 0
rfingers 7.12502 0 0
rthumb 27.9507 305.732 0
2963
root -5.51928 13.6009 -29.3897 1209 -67.2867 -124.797
lfemur -66.2215 35.0352 -8.32834
ltibia 67.7793 0 0
lfoot -7.1632 0.75629 0
ltoes -36.3709 0 0
rfemur -34.1703 -13.8766 25.334
rtibia 86.1117 0 0
rfoot -37.5641 -29.7347 0
rtoes -13.0479 0 0
lowerback 16.1112 4.92278 1.27394
upperback -3.86922 7.04704 1.25468
thorax -13.4065 3.22165 -1.25253
lowerneck -2.06545 6.82733 -0.224643
upperneck 5.87598 8.9285 2.48965
head 2.29302 4.4953 1.20357
lclavicle 8.88082e-15 2.00725e-15 0
lhumerus 8.1714 10.6471 82.4755
lradius 88.729 0 0
lwrist -13.9766 0 0
lhand -36.0914 389.475 0
lfingers 7.12502 0 0
lthumb -9.1959 -660.808 0
rclavicle 8.88082e-15 2.00725e-15 0
rhumerus -40.7667 42.1845 -101.127
rradius 110.764 0 0
rwrist -76.863 0 0
rhand 1.94525 -386.772 0
rfingers 7.12502 0 0
rthumb 27.4223 305.525 0
2964
root -5.46553 13.649 -29.4563 1205.61 -67.3578 -121.279
lfemur -66.0574 34.1257 -8.51377
ltibia 66.7129 0 0
lfoot -7.09357 1.14817 0
ltoes -36.1075 0 0
rfemur -34.1779 -13.4511 25.6144
rtibia 85.6251 0 0
rfoot -37.238 -29.6905 0
rtoes -12.9698 0 0
lowerback 16.0969 4.88184 1.26214
upperback -3.80754 6.98432 1.23206
thorax -13.3263 3.19443 -1.24989
lowerneck -1.97627 6.54582 -0.42577
upperneck 5.61834 8.55875 2.5742
head 2.1987 4.30948 1.25403
lclavicle 8.61999e-15 1.13454e-15 0
lhumerus 8.42478 10.2399 82.4306
lradius 88.5143 0 0
lwrist -13.516 0 0
lhand -35.795 389.558 0
lfingers 7.12502 0 0
lthumb -8.90984 -660.717 0
rclavicle 8.61999e-15 1.13454e-15 0
rhumerus -38.9507 41.2844 -100.083
rradius 110.547 0 0
rwrist -76.32 0 0
rhand 1.39458 -386.915 0
rfingers 7.12502 0 0
rthumb 26.894 305.318 0
2965
root -5.41178 13.6972 -29.5229 1202.22 -67.4289 -117.762
lfemur -65.8933 33.2161 -8.6992
ltibia 65.6465 0 0
lfoot -7.02393 1.54005 0
ltoes -35.8441 0 0
rfemur -34.1855 -13.0256 25.8947
rtibia 85.1386 0 0
rfoot -36.9119 -29.6463 0
rtoes -12.8918 0 0
lowerback 16.0826 4.84091 1.25033
upperback -3.74586 6.92161 1.20944
thorax -13.2461 3.1672 -1.24725
lowerneck -1.88709 6.2643 -0.626896
upperneck 5.36069 8.18901 2.65875
head 2.10438 4.12366 1.30448
lclavicle 8.35916e-15 2.61824e-16 0
lhumerus 8.67816 9.83277 82.3857
lradius 88.2995 0 0
lwrist -13.0554 0 0
lhand -35.4987 389.64 0
lfingers 7.12502 0 0
lthumb -8.62378 -660.626 0
rclavicle 8.35916e-15 2.61824e-16 0
rhumerus -37.1347 40.3844 -99.0388
rradius 110.33 0 0
rwrist -75.7771 0 0
rhand 0.8439 -387.059 0
rfingers 7.12502 0 0
rthumb 26.3656 305.11 0
2966
root -5.35802 13.7454 -29.5894 1198.83 -67.4999 -114.245
lfemur -65.7292 32.3066 -8.88463
ltibia 64.5801 0 0
lfoot -6.95429 1.93193 0
ltoes -35.5807 0 0
rfemur -34.1931 -12.6001 26.1751
rtibia 84.6521 0 0
rfoot -36.5859 -29.6021 0
rtoes -12.8137 0 0
lowerback 16.0682 4.79997 1.23853
upperback -3.68418 6.8589 1.18681
thorax -13.1659 3.13998 -1.24461
lowerneck -1.79791 5.98278 -0.828022
upperneck 5.10304 7.81927 2.7433
head 2.01006 3.93785 1.35494
lclavicle 8.09833e-15 -6.1089e-16 0
lhumerus 8.93154 9.42559 82.3409
lradius 88.0848 0 0
lwrist -12.5948 0 0
lhand -35.2023 389.723 0
lfingers 7.12502 0 0
lthumb -8.33772 -660.535 0
rclavicle 8.09833e-15 -6.1089e-16 0
rhumerus -35.3187 39.4844 -97.9944
rradius 110.113 0 0
rwrist -75.2341 0 0
rhand 0.293224 -387.202 0
rfingers 7.12502 0 0
rthumb 25.8373 304.903 0
